<svg xmlns="http://www.w3.org/2000/svg" width="162" height="120" fill="none" viewBox="0 0 162 120">
    <g clip-path="url(#a)">
        <path fill="#3F3D56" d="M151.771 8.438H12.044v89.343H151.77V8.438z"/>
        <path fill="#F2F2F2" d="M147.798 24.57h-62.91v73.128h62.91V24.569z"/>
        <path fill="#3F3D56" d="M6.405 92.781c1.913 3.544 5.97 5.065 5.97 5.065s.959-4.224-.953-7.768c-1.912-3.544-5.97-5.065-5.97-5.065s-.959 4.224.953 7.768z"/>
        <path fill="#DE0059" d="M7.72 91.615c3.452 2.076 4.782 6.199 4.782 6.199s-4.268.757-7.72-1.319C1.33 94.42 0 90.297 0 90.297s4.268-.758 7.72 1.318z"/>
        <path fill="#fff" d="M144.321 31.373h-38.155v1.538h38.155v-1.538zM144.321 34.756h-38.155v1.538h38.155v-1.538zM119.09 38.139h-12.924v1.537h12.924V38.14zM65.97 77.534H27.816v1.537h38.156v-1.537zM65.97 80.916H27.816v1.538h38.156v-1.537zM40.739 84.299H27.815v1.537H40.74V84.3zM135.381 50.235H97.226v1.537h38.155v-1.537zM135.381 53.617H97.226v1.538h38.155v-1.538zM135.381 56.926H97.226v1.538h38.155v-1.538zM135.381 60.235H97.226v1.538h38.155v-1.538zM135.381 63.544H97.226v1.538h38.155v-1.538zM135.381 66.853H97.226v1.538h38.155v-1.538zM135.381 70.162H97.226V71.7h38.155v-1.538zM135.381 73.471H97.226v1.538h38.155V73.47zM135.381 76.78H97.226v1.538h38.155V76.78zM135.381 80.09H97.226v1.537h38.155v-1.538zM135.381 83.398H97.226v1.538h38.155v-1.538z"/>
        <path fill="#DE0059" d="M60.796 53.086a13.852 13.852 0 0 1-5.16 10.802 13.707 13.707 0 0 1-3.147 1.92 13.774 13.774 0 0 1-5.596 1.172 13.748 13.748 0 0 1-3.06-.339 13.872 13.872 0 0 1-6.215-3.207 13.892 13.892 0 0 1-4.248-13.569 13.89 13.89 0 0 1 8.528-9.743 13.91 13.91 0 0 1 17.297 6.492 13.886 13.886 0 0 1 1.601 6.472zM102.158 37.587c.02 4.447-2.619 6.01-5.882 6.025a10.015 10.015 0 0 1-.675-.02c-2.946-.195-5.241-1.817-5.26-5.953-.019-4.28 5.43-9.706 5.84-10.107l.024-.023s5.933 5.63 5.953 10.078z"/>
        <path fill="#3F3D56" d="M96.058 42.933l2.148-3.027-2.152 3.358-.004.347a9.07 9.07 0 0 1-.449-.019l.213-4.45-.002-.034.004-.007.02-.42-2.186-3.348 2.191 3.033.006.089.161-3.362-1.874-3.461 1.894 2.87.153-6.97v-.023.023l-.006 5.496 1.841-2.187-1.847 2.66-.035 3.01 1.716-2.896-1.721 3.339-.02 1.673 2.491-4.031-2.498 4.615-.044 3.722zM151.688 47.567a23.186 23.186 0 0 0-16.389 6.784 23.158 23.158 0 0 0-6.788 16.379c0 1.799-.715 3.524-1.988 4.796a6.791 6.791 0 0 1-4.8 1.987h-11.257a20.212 20.212 0 0 0-14.282 5.912 20.184 20.184 0 0 0-5.916 14.273h61.42V47.567z"/>
        <path fill="#2F2E41" d="M83.315 8.438h-2.98v89.343h2.98V8.438z"/>
        <path fill="#DE0059" d="M52.936 7.114V4.798A4.797 4.797 0 0 0 48.135.003a4.803 4.803 0 0 0-4.801 4.795v2.316h-9.106v5.13h27.813v-5.13h-9.105zm-4.801-5.79a2.815 2.815 0 0 1 2.76 3.361 2.812 2.812 0 0 1-3.837 2.05 2.814 2.814 0 0 1-.913-4.588 2.814 2.814 0 0 1 1.99-.823z"/>
        <path fill="#FFB8B8" d="M49.362 52.17s-1.383 3.933-.532 4.538c.85.605-2.872 5.547-2.872 5.547l-4.468-1.21 2.447-4.136s.319-4.134.319-4.74c0-.605 5.106 0 5.106 0z"/>
        <path fill="#000" d="M49.362 52.17s-1.383 3.933-.532 4.538c.85.605-2.872 5.547-2.872 5.547l-4.468-1.21 2.447-4.136s.319-4.134.319-4.74c0-.605 5.106 0 5.106 0z" opacity=".1"/>
        <path fill="#FFB8B8" d="M46.536 55.094a3.632 3.632 0 1 0-3.633-3.631 3.632 3.632 0 0 0 3.633 3.63z"/>
        <path fill="#D0CDE1" d="M43.834 66.642c-.452-.1-.898-.224-1.336-.371l.695-4.765.215-1.47 1.103.414c.149.055.318.12.511.19a1.165 1.165 0 0 0 .924-.032c1.066-.488 1.7-2.388 1.7-2.388s.043.533.1 1.435c.1 1.583.246 4.306.291 7.28-.377.03-.759.046-1.144.046a13.747 13.747 0 0 1-3.06-.34z"/>
        <path fill="#D0CDE1" d="M44.82 57.616l-.31 2.834-.15 1.371-.526 4.82a13.872 13.872 0 0 1-6.215-3.206l-.67-2.391a2.821 2.821 0 0 1 .044-.43 3.014 3.014 0 0 1 .084-.376c.12-.455.353-.872.68-1.21.807-.808 6.154-3.33 6.154-3.33l.101.212.808 1.706z"/>
        <path fill="#2F2E41" d="M46.459 46.332c.805-.029 1.667-.043 2.346.39.313.218.587.487.81.794.662.836 1.234 1.887.988 2.924l-.285-.111c0 .276.061.55.18.8-.04-.117-.175.072-.139.19l.315 1.03a.971.971 0 0 0-1.239.739c-.035-1.197-.16-2.57-1.131-3.27-.49-.354-1.11-.462-1.707-.558-.55-.088-1.127-.173-1.654.008-.528.181-.977.72-.857 1.264a.564.564 0 0 0-.635.313 1.643 1.643 0 0 0-.13.752c-.26.183-.554-.18-.66-.48-.248-.701-.468-1.448-.334-2.18.133-.733.73-1.432 1.475-1.435a.517.517 0 0 1-.135-.364l.614-.052a.678.678 0 0 1-.405-.213c.246.27 2.184-.527 2.583-.54z"/>
        <path fill="#D0CDE1" d="M54.912 60.239c-.094.756-.634 2.892-1.178 4.945a13.773 13.773 0 0 1-6.84 1.797c-.763 0-1.524-.062-2.276-.187.282-1.086.66-2.874 1.015-4.626.108-.53.214-1.057.313-1.56.39-1.982.69-3.597.69-3.597s1.209-1.185 1.926-1.46a.622.622 0 0 1 .31-.05c.59.097 1.398 1.51 1.398 1.51s3.626 1.207 4.473 2.579c.13.19.19.42.17.649zM39.572 60.238l-.212 4.527a13.765 13.765 0 0 1-1.741-1.33 12.67 12.67 0 0 1-1.035-1.03l.407-1.786v-.003l.002-.002a34.176 34.176 0 0 1 .084-.376h2.495z"/>
        <path fill="#D0CDE1" d="M55.636 63.888a13.707 13.707 0 0 1-3.147 1.92l-.403-2.343.404-4.438 2.254.563.168.043.724 4.255z"/>
        <path fill="#A0616A" d="M151.16 71.67s-1.572 7.681 1.048 6.983c2.621-.698 1.572-7.333 1.572-7.333l-2.62.35z"/>
        <path fill="#D0CDE1" d="M158.497 39.894h-1.747s-1.922 1.397-1.747 2.968c.175 1.571-3.144 15.19-3.144 16.935 0 1.746-.699 2.27-.699 3.318 0 1.047.349 1.745 0 2.27-.35.523-1.048 3.666-.874 4.888a9.8 9.8 0 0 1 0 2.444h4.368s3.144-10.65 3.843-11.174c.699-.523 1.048-1.396 1.048-1.92s-.349-.524.524-1.222c.874-.699.35-3.841.35-3.841l1.223-3.143-3.145-11.523z"/>
        <path fill="#000" d="M158.497 39.894h-1.747s-1.922 1.397-1.747 2.968c.175 1.571-3.144 15.19-3.144 16.935 0 1.746-.699 2.27-.699 3.318 0 1.047.349 1.745 0 2.27-.35.523-1.048 3.666-.874 4.888a9.8 9.8 0 0 1 0 2.444h4.368s3.144-10.65 3.843-11.174c.699-.523 1.048-1.396 1.048-1.92s-.349-.524.524-1.222c.874-.699.35-3.841.35-3.841l1.223-3.143-3.145-11.523z" opacity=".1"/>
        <path fill="#A0616A" d="M134.039 67.392s-1.572 7.682 1.048 6.984c2.621-.699 1.573-7.333 1.573-7.333l-2.621.35zM134.563 103.183l-1.048 4.365 3.843 2.444 1.049-5.238-3.844-1.571zM152.732 108.596l-1.922 2.619 2.271 2.618h3.145v-5.237h-3.494z"/>
        <path fill="#2F2E41" d="M156.75 111.563h-1.048a3.962 3.962 0 0 0-1.572 0c-1.049.175-2.471-1.505-2.471-1.505l-1.373 1.156s-2.795.699-1.397 4.016l3.144 1.92s1.573 3.318 4.717 2.794c3.145-.524.874-4.016.874-4.016l-.874-4.365zM134.563 105.453l-.265-1.163-2.355.639s-4.892-3.142-4.892 1.048c0 4.19 3.844 5.587 3.844 5.587s1.397-.175 1.397 1.047 3.669 3.143 5.066 2.444c1.398-.698 1.398-2.444 1.398-2.444l-.349-4.888-1.573.349s-2.97-.175-2.445-.873c.524-.698.174-1.746.174-1.746z"/>
        <path fill="#2F2E41" d="M139.629 65.297s-2.096 2.794-2.096 4.365c0 1.571-.699 15.539-.699 15.539s-3.843 17.808-2.795 18.855c1.048 1.048 4.193 2.619 4.717 2.096.524-.524 4.193-19.555 4.193-19.555l4.367-11.697 4.018 16.76s-.174 14.492.525 14.666c.698.175 1.048.349.698 1.048-.349.698-.873 2.095-.873 2.095s4.367 1.047 5.241.349c.873-.698 1.048-17.634 0-23.57s.175-19.554.175-19.554l-17.471-1.397z"/>
        <path fill="#A0616A" d="M146.006 31.514a5.239 5.239 0 0 0 5.241-5.238 5.239 5.239 0 0 0-5.241-5.238 5.24 5.24 0 0 0-5.241 5.238 5.24 5.24 0 0 0 5.241 5.238z"/>
        <path fill="#A0616A" d="M144.434 29.594s.699 3.666 0 4.713c-.699 1.048 9.434.35 9.434.35s-4.892-5.587-4.368-6.635c.524-1.047-5.066 1.572-5.066 1.572z"/>
        <path fill="#D0CDE1" d="M139.979 35.617s3.494-4.54 7.862-3.667c1.179.236 2.256.472 3.2.69 3.328.77 6.096 3.14 7.232 6.36.295.834.443 1.636.312 2.291-.525 2.619-.262 23.308-.262 23.308s-1.398.524-1.223 1.222c.174.698 1.397 1.571.174 1.571s-19.741-.698-19.391-1.222c.349-.524 2.096-30.553 2.096-30.553z"/>
        <path fill="#D0CDE1" d="M141.726 35.617h-1.747s-1.922 1.396-1.747 2.968c.175 1.571-3.145 15.19-3.145 16.935 0 1.746-.698 2.27-.698 3.317 0 1.048.349 1.746 0 2.27-.35.524-1.049 3.666-.874 4.889a9.8 9.8 0 0 1 0 2.444h4.368s3.144-10.65 3.843-11.174c.699-.524 1.048-1.397 1.048-1.92 0-.524-.349-.524.524-1.223.874-.698.35-3.84.35-3.84l1.223-3.143-3.145-11.523z"/>
        <path fill="#000" d="M139.179 65.94l5.255-11.555-2.628 12.289-2.627-.734z" opacity=".1"/>
        <path fill="#2F2E41" d="M144.178 18.355l.002-.432a3.377 3.377 0 0 1 1.085.038c.004-.26-.051-.52-.159-.757.36.048.71.152 1.037.309l.12-.803 3.129 1.096c1.124.393 2.311.831 3.04 1.771.812 1.049.871 2.515.559 3.804-.312 1.29-.946 2.473-1.42 3.712a8.69 8.69 0 0 1-.665 1.527c-.945 1.524-3.081 2.067-4.754 1.42-.617-.239-1.2-.637-1.513-1.22a9.162 9.162 0 0 1-.408-1.113c-.291-.77-.715-2.38-1.421-2.804-.311-.186-.784.614-1.052.37-.69-.625-.694-1.718-.421-2.608.257-.892.578-1.763.961-2.609.165-.34 1.88-1.753 1.88-1.7z"/>
    </g>
    <defs>
        <clipPath id="a">
            <path fill="#fff" d="M0 0h161.642v120H0z"/>
        </clipPath>
    </defs>
</svg>
