<svg xmlns="http://www.w3.org/2000/svg" width="173" height="120" fill="none" viewBox="0 0 173 120">
    <g clip-path="url(#a)">
        <path fill="#DE0059" d="M43.905 48.082h-18.28c-.647 0-1.172.525-1.172 1.173v3.894c0 .648.525 1.173 1.172 1.173h18.28c.647 0 1.172-.525 1.172-1.173v-3.894c0-.648-.525-1.173-1.172-1.173zM65.488 54.324h-18.28c-.647 0-1.172.525-1.172 1.173v3.894c0 .648.525 1.173 1.172 1.173h18.28c.647 0 1.172-.526 1.172-1.173v-3.894c0-.648-.525-1.173-1.172-1.173zM87.073 60.564h-18.28c-.648 0-1.172.525-1.172 1.173v3.894c0 .648.525 1.173 1.172 1.173h18.28c.647 0 1.172-.525 1.172-1.173v-3.894c0-.648-.525-1.173-1.172-1.173zM43.905 38.722h-18.28c-.647 0-1.172.525-1.172 1.173v3.894c0 .648.525 1.173 1.172 1.173h18.28c.647 0 1.172-.525 1.172-1.173v-3.894c0-.648-.525-1.173-1.172-1.173zM65.488 44.962h-18.28c-.647 0-1.172.526-1.172 1.174v3.893c0 .648.525 1.173 1.172 1.173h18.28c.647 0 1.172-.525 1.172-1.173v-3.893c0-.648-.525-1.174-1.172-1.174zM87.073 51.204h-18.28c-.648 0-1.172.525-1.172 1.173v3.893c0 .648.525 1.174 1.172 1.174h18.28c.647 0 1.172-.526 1.172-1.174v-3.893c0-.648-.525-1.173-1.172-1.173zM111.054 48.082h-18.28c-.647 0-1.172.525-1.172 1.173v3.894c0 .648.525 1.173 1.172 1.173h18.28c.647 0 1.172-.525 1.172-1.173v-3.894c0-.648-.525-1.173-1.172-1.173zM132.637 54.324h-18.28c-.647 0-1.172.525-1.172 1.173v3.894c0 .648.525 1.173 1.172 1.173h18.28c.647 0 1.172-.526 1.172-1.173v-3.894c0-.648-.525-1.173-1.172-1.173zM154.222 60.564h-18.28c-.647 0-1.172.525-1.172 1.173v3.894c0 .648.525 1.173 1.172 1.173h18.28c.647 0 1.172-.525 1.172-1.173v-3.894c0-.648-.525-1.173-1.172-1.173zM111.054 38.722h-18.28c-.647 0-1.172.525-1.172 1.173v3.894c0 .648.525 1.173 1.172 1.173h18.28c.647 0 1.172-.525 1.172-1.173v-3.894c0-.648-.525-1.173-1.172-1.173zM132.637 44.962h-18.28c-.647 0-1.172.526-1.172 1.174v3.893c0 .648.525 1.173 1.172 1.173h18.28c.647 0 1.172-.525 1.172-1.173v-3.893c0-.648-.525-1.174-1.172-1.174zM154.222 51.204h-18.28c-.647 0-1.172.525-1.172 1.173v3.893c0 .648.525 1.174 1.172 1.174h18.28c.647 0 1.172-.526 1.172-1.174v-3.893c0-.648-.525-1.173-1.172-1.173zM43.905 26.24h-18.28c-.647 0-1.172.526-1.172 1.173v3.894c0 .648.525 1.173 1.172 1.173h18.28c.647 0 1.172-.525 1.172-1.173v-3.894c0-.648-.525-1.173-1.172-1.173zM65.488 32.48h-18.28c-.647 0-1.172.526-1.172 1.174v3.893c0 .648.525 1.174 1.172 1.174h18.28c.647 0 1.172-.526 1.172-1.174v-3.893c0-.648-.525-1.174-1.172-1.174zM87.073 38.722h-18.28c-.648 0-1.172.525-1.172 1.173v3.894c0 .648.525 1.173 1.172 1.173h18.28c.647 0 1.172-.525 1.172-1.173v-3.894c0-.648-.525-1.173-1.172-1.173zM43.905 16.879h-18.28c-.647 0-1.172.525-1.172 1.173v3.894c0 .648.525 1.173 1.172 1.173h18.28c.647 0 1.172-.525 1.172-1.173v-3.894c0-.648-.525-1.173-1.172-1.173zM65.488 23.12h-18.28c-.647 0-1.172.526-1.172 1.174v3.893c0 .648.525 1.174 1.172 1.174h18.28c.647 0 1.172-.526 1.172-1.174v-3.893c0-.648-.525-1.173-1.172-1.173zM87.073 29.36h-18.28c-.648 0-1.172.526-1.172 1.174v3.893c0 .648.525 1.173 1.172 1.173h18.28c.647 0 1.172-.525 1.172-1.173v-3.893c0-.648-.525-1.174-1.172-1.174zM111.054 26.24h-18.28c-.647 0-1.172.526-1.172 1.173v3.894c0 .648.525 1.173 1.172 1.173h18.28c.647 0 1.172-.525 1.172-1.173v-3.894c0-.648-.525-1.173-1.172-1.173zM132.637 32.48h-18.28c-.647 0-1.172.526-1.172 1.174v3.893c0 .648.525 1.174 1.172 1.174h18.28c.647 0 1.172-.526 1.172-1.174v-3.893c0-.648-.525-1.174-1.172-1.174zM154.222 38.722h-18.28c-.647 0-1.172.525-1.172 1.173v3.894c0 .648.525 1.173 1.172 1.173h18.28c.647 0 1.172-.525 1.172-1.173v-3.894c0-.648-.525-1.173-1.172-1.173zM111.054 16.879h-18.28c-.647 0-1.172.525-1.172 1.173v3.894c0 .648.525 1.173 1.172 1.173h18.28c.647 0 1.172-.525 1.172-1.173v-3.894c0-.648-.525-1.173-1.172-1.173zM132.637 23.12h-18.28c-.647 0-1.172.526-1.172 1.174v3.893c0 .648.525 1.174 1.172 1.174h18.28c.647 0 1.172-.526 1.172-1.174v-3.893c0-.648-.525-1.173-1.172-1.173zM154.222 29.36h-18.28c-.647 0-1.172.526-1.172 1.174v3.893c0 .648.525 1.173 1.172 1.173h18.28c.647 0 1.172-.525 1.172-1.173v-3.893c0-.648-.525-1.174-1.172-1.174zM86.295 120c47.659 0 86.295-7.034 86.295-15.711s-38.636-15.71-86.295-15.71C38.635 88.579 0 95.613 0 104.289 0 112.966 38.636 120 86.295 120z" opacity=".1"/>
        <path fill="#3F3D56" d="M37.862 50.684l-7.257 44.527 32.815-3.474-1.42-3.79-25.636 2.132 5.995-39.473-4.497.078z"/>
        <path fill="#3F3D56" d="M29.343.158L73.516 0l12.779 96.79-44.33 5.999L29.342.158z"/>
        <path fill="#fff" d="M34.155 3.869H69.81l12.463 90-36.758 5.052L34.155 3.87z"/>
        <path fill="#3F3D56" d="M67.78 89.82c.224.43.391.894.683 1.28.852 1.14 2.47 1.319 3.682 2.063.061.03.111.079.144.139.055.13-.068.268-.186.35-.92.646-2.127.66-3.252.652a4.332 4.332 0 0 1-1.124-.107c-.595-.158-1.105-.573-1.692-.742a4.484 4.484 0 0 0-.929-.131l-1.232-.084a2.9 2.9 0 0 1-.96-.178.972.972 0 0 1-.607-.719c-.034-.262.078-.516.144-.772.158-.606.109-1.339.58-1.753.195-.148.418-.256.655-.315a20.88 20.88 0 0 1 2.62-.698c.731-.144 1.15.393 1.474 1.015zM53.844 93.236c.031.336.04.721-.202.956a1.076 1.076 0 0 1-.529.237c-1.166.272-2.466.29-3.48-.344a.963.963 0 0 1-.275-.235.859.859 0 0 1-.138-.434c-.037-.447.1-.888.225-1.319.295-1.023.52-2.065.67-3.118.013-.087 2.978.473 3.175.767.248.363.25 1.235.315 1.668.1.604.18 1.211.239 1.822z"/>
        <path fill="#192534" d="M64.877 52.148l.79 7.34c.157 1.5.323 3.008.214 4.513-.127 1.737-.612 3.474-.407 5.194.08.67.263 1.327.29 2.001.005.448-.018.897-.068 1.342-.356 4.454.772 8.874 1.403 13.297.101.545.123 1.102.066 1.654-.082.56-.246 1.297.252 1.562l-4.682 1.699c-.598-.75-.202-1.917-.316-2.87-.104-.856-.574-1.62-.825-2.447-.227-.742-.274-1.523-.348-2.294-.409-4.195-1.663-8.281-1.957-12.486a5.683 5.683 0 0 0-.157-1.205c-.158-.522-.474-.979-.704-1.47-.353-.737-.527-1.546-.697-2.345l-1.002-4.697c-1.013 1.51-.972 3.474-1.172 5.283-.281 2.527-.909 5.01-1.42 7.505-.119.537-.208 1.08-.267 1.626-.132 1.464.131 2.942-.01 4.404-.157 1.694-.868 3.347-.696 5.042.094.937.454 1.825.697 2.734.243.91.363 1.908-.008 2.775a8.513 8.513 0 0 0-4.056-.449c-1.503-1.54-1.77-3.687-1.873-5.842-.102-2.155.145-4.314-.123-6.448-.079-.632-.202-1.248-.222-1.878-.066-2.02.904-3.91 1.387-5.872.434-1.767.475-3.607.121-5.392-.237-1.18-.644-2.324-.789-3.52-.197-1.675.137-3.363.474-5.017.225-1.117.45-2.233.705-3.343.274-1.192.6-2.41 1.334-3.385 1.174-1.562 3.258-2.255 5.206-2.103 1.949.151 3.768 1.038 5.377 2.144a20.275 20.275 0 0 1 3.483 2.948z"/>
        <path fill="#FBBEBE" d="M59.643 24.04c-.089.142-.15.299-.182.463-.039.324.158.621.316.904.202.363.357.75.462 1.152.075.25.098.511.068.77-.038.193-.108.38-.205.552-.304.587-.756 1.13-1.37 1.375a2.41 2.41 0 0 1-1.48.06 4.495 4.495 0 0 1-1.356-.644 4.121 4.121 0 0 1-.928-.805 5.567 5.567 0 0 1-.64-1.106c-.328-.686-.661-1.42-.601-2.174a.729.729 0 0 1 .038-.2c.05-.117.123-.224.211-.316a4.123 4.123 0 0 0 .966-2.866l2.298.523c.507.115 1.013.23 1.513.374.41.118 1.041.283 1.308.649.267.366-.237.954-.418 1.288z"/>
        <path fill="#FBBEBE" d="M58.412 23.648a4.18 4.18 0 0 0 4.178-4.181 4.18 4.18 0 0 0-4.178-4.181 4.18 4.18 0 0 0-4.177 4.18 4.18 4.18 0 0 0 4.177 4.182z"/>
        <path fill="#F2F2F2" d="M57.74 27.902c.177-.387.559-.632.907-.875.349-.243.702-.554.77-.976a.701.701 0 0 1 .07-.274c.134-.203.452-.102.643.047.464.361.78.875 1.087 1.375a11.76 11.76 0 0 1 1.018 1.925c.443 1.17.497 2.447.546 3.696.044 1.137.087 2.291-.19 3.393-.173.698-.473 1.376-.49 2.094-.052 2.61-.958 5.105-1.021 7.715-.005.755.033 1.509.114 2.26l.148 1.694a112.574 112.574 0 0 1-6.863-.605c-.066-.78-.288-1.537-.492-2.291a49.766 49.766 0 0 1-1.595-9.433c-.121-1.693-.246-3.379-.434-5.065-.169-1.533-.5-3.076-.301-4.606a6.362 6.362 0 0 1 .647-1.993c.102-.248.279-.46.505-.604.113-.055.233-.094.356-.116.358-.072.72-.115 1.086-.128a.745.745 0 0 1 .265.026c.153.076.28.199.36.35a6.551 6.551 0 0 0 2.864 2.39z"/>
        <path fill="#DE0059" d="M55.803 27.567c.293.42.915.52 1.186.947.092.179.161.368.207.564.166.529.5.988.704 1.505.293.742.3 1.563.304 2.36a7.822 7.822 0 0 1-.145 1.895c-.095.39-.25.76-.363 1.146a5.611 5.611 0 0 0-.211 2.021c0 .147.039.292.113.419a.907.907 0 0 0 .404.274c.462.204.947.412 1.452.365a.53.53 0 0 0 .288-.096.64.64 0 0 0 .142-.188l.316-.534c.285-.488.583-1.034.473-1.591-.08-.288-.2-.563-.358-.817a9.603 9.603 0 0 1-.514-1.274c-.504-1.448-1.013-2.916-1.127-4.445a3.91 3.91 0 0 1 .19-1.724c.148-.34.334-.663.555-.961a.412.412 0 0 0-.444-.15c-.158.049-.312.113-.459.19-.463.196-.978.125-1.446-.009-.183-.054-.474-.237-.663-.224-.064.008-.593.346-.604.327z"/>
        <path fill="#F2F2F2" d="M59.496 27.55c-.095-.076-.241-.146-.325-.057a.366.366 0 0 0-.06.128c-.082.22-.323.33-.542.415-.22.085-.457.133-.589-.03a.357.357 0 0 1 .02-.422c.098-.117.215-.215.346-.292a3.376 3.376 0 0 0 1.376-2.166c.203.162.338.395.377.652.052.251.058.51.11.761.077.36.25.696.289 1.061.02.194 0 .39 0 .584.007.19.03.38.066.566-.369-.392-.63-.851-1.068-1.2zM56.303 26.477c-.158-.15-.316-.292-.473-.445a6.144 6.144 0 0 1-1.526-2.424c-.202.158-.424.367-.429.632.018.188.09.366.208.513.597.94.99 1.995 1.157 3.096a.922.922 0 0 1 .796-.424c.25 0 1.368.663 1.449.495.118-.262-.993-1.264-1.182-1.443z"/>
        <path fill="#3F3D56" d="M59.826 25.22a13.093 13.093 0 0 0 5.297 3.21c.199.044.383.137.535.272.114.142.19.31.223.49.385 1.506.514 3.065.642 4.613.033.257.028.516-.016.771-.093.414-.386.748-.675 1.06-.906.97-1.94 1.986-2.092 3.306a5.288 5.288 0 0 1-.09.758c-.079.293-.254.552-.361.838-.527 1.407.664 3.11-.062 4.421.393.755.663 1.569.798 2.41.025.318.098.631.216.928.217.452.662.739 1.012 1.105 1.068 1.096 1.199 2.773 1.262 4.303.04.862.027 1.852-.631 2.417-.38.33-.9.438-1.396.52-.661.11-1.38.19-1.966-.138-.42-.233-.705-.642-.978-1.037-.518-.753-1.037-1.505-1.527-2.277-.776-1.217-1.509-2.608-1.284-4.036-.063 1.46-.371 2.932-1.087 4.205-.717 1.273-1.87 2.335-3.27 2.755-1.398.42-3.034.123-4.077-.9a5.517 5.517 0 0 1-.87-1.173 11.455 11.455 0 0 1-1.284-3.27c-.068-.298-.118-.631.032-.898.07-.127.18-.226.254-.35.25-.426.01-.96-.232-1.393-.368.034-.631-.398-.598-.768.033-.37.254-.69.41-1.026.458-.992.357-2.146.136-3.215-.221-1.069-.55-2.131-.526-3.222.027-1.155-.803-2.194-1.435-3.158-.353-.544-.765-1.049-1.073-1.619a5.226 5.226 0 0 1-.413-3.91c.22-.67.51-1.317.864-1.929l.52-.977a1.612 1.612 0 0 1 1.105-.947l3.602-1.422c.46-.157.898-.376 1.3-.65.44-.332.768-.79 1.188-1.143a.665.665 0 0 1 .473-.207c.338.03.458.456.492.79.08.745.631 1.376.82 2.101 1.015 4.003 3.165 7.694 3.755 11.78.663-1.593 1.325-3.189 2.174-4.689.134-.215.247-.443.336-.68.102-.343.14-.7.112-1.057-.042-1.028-.315-2.032-.585-3.025-.35-1.352-.666-2.597-1.03-3.936z"/>
        <path fill="#3F3D56" d="M66.69 37.45c.07.673.137 1.348.262 2.012.145.77.366 1.521.585 2.273.107.422.26.831.458 1.22.071.113.128.235.168.362.078.316-.099.631-.175.947-.227.947.455 2 .026 2.874-.13.265-.355.485-.44.769-.1.327 0 .676.052 1.013.134.948-.19 1.91-.508 2.822l-.543 1.538c-.496-.922-.996-1.854-1.68-2.645-.245-.284-.511-.548-.737-.848a5.947 5.947 0 0 1-.789-1.538 13.342 13.342 0 0 1-.816-4.06c-.039-.395.007-.794.135-1.17.104-.216.22-.427.35-.63.423-.763.51-1.667.502-2.538-.008-.872-.102-1.746 0-2.613a5.982 5.982 0 0 1 .63-2.073c.198-.42.492-.785.857-1.07.273-.204.606-.312.947-.307.516.03.397.473.441.901l.275 2.762zM43.485 35.302a45.882 45.882 0 0 0-.87 2.867c-.253.948-.479 1.9-.678 2.858-.102.421-.159.852-.17 1.285.02.505.107 1.004.257 1.486 1.016 3.665 2.868 7.045 4.954 10.224a9.2 9.2 0 0 1 2.098-1.917.45.45 0 0 0 .158-.158.429.429 0 0 0-.05-.37c-.576-1.18-1.488-2.22-1.776-3.505-.12-.533-.124-1.089-.26-1.62-.175-.686-.566-1.315-.656-2.019-.096-.767.158-1.604-.202-2.285.734-.286 1.158-1.042 1.469-1.767.332-.741.57-1.521.706-2.322a6.993 6.993 0 0 0-.853-4.445 7.101 7.101 0 0 0-1.428-1.794c-.187-.169-.63-.653-.904-.649-.364.008-.48.599-.585.864a78.855 78.855 0 0 0-1.21 3.267z"/>
        <path fill="#FBBEBE" d="M50.02 52.975c.047.035.1.082.088.14-.013.056-.059.07-.1.094a1.224 1.224 0 0 0-.454.616c-.262.591-.49 1.197-.685 1.814a7.947 7.947 0 0 0-1.236-1.445c-.36-.331-.762-.645-.955-1.094 0-.013.827-.623.903-.69.231-.207.523-.78.763-.906.271-.142.53.415.737.64.284.307.599.586.938.831z"/>
        <path fill="#192534" d="M62.849 18.813c-.011-.207-.038-.436-.196-.57a.746.746 0 0 0-.473-.131c-.92-.03-1.871.125-2.74-.185-.57-.203-1.058-.595-1.615-.838-.556-.243-1.27-.308-1.72.1-.34.317-.433.801-.551 1.248a7.316 7.316 0 0 1-1.362 2.703c-.427-.132-.733-.514-.93-.916-.671-1.367-.341-3 .135-4.449.158-.486.333-.968.508-1.448l.385-1.06c.505-.05.975-.284 1.319-.658l.166.403c.427-.016.84-.162 1.183-.418.132.249.473.315.75.235.275-.08.513-.236.788-.316.733-.237 1.516.128 2.286.169.326-.008.652.002.976.028.91.147 1.551 1.003 1.829 1.88.184.585.337 1.303.913 1.51.013.221-.378.264-.412.474-.003.07.013.14.048.2l.528 1.136c-.252.063-.518.05-.763-.038-.238.56-1.029 1.369-1.053.941z"/>
        <path fill="#FBBEBE" d="M89.63 21.285c.268.865.479 1.748.63 2.641.114.67.18 1.413-.203 1.972 1.461-2.2 2.987-4.465 5.206-5.885a4.757 4.757 0 0 1-1.238-3.669c.013-.133-1.822.56-1.963.64-.643.358-1.233.803-1.861 1.187-.325.197-1.679.665-1.691.947 0 .182.538.738.639.929.198.396.359.81.48 1.238z"/>
        <path fill="#fff" d="M96.418 104.239a2.443 2.443 0 0 0-2.499-.189c-.714.369-1.195 1.069-1.846 1.542-1.116.812-2.591.877-3.9 1.316-.346.116-.716.29-.862.631a1.12 1.12 0 0 0 .064.88c.22.487.602.883 1.083 1.116.587.281 1.262.294 1.912.302l5.648.066c1.735.02 3.481.041 5.206.257.402.051.837.106 1.192-.091.578-.316.644-1.115.6-1.774a16.268 16.268 0 0 0-1.105-4.863c-.067-.172-.157-.368-.348-.399a.567.567 0 0 0-.376.12c-1.593.947-3.61 1.482-5.305.725"/>
        <path fill="#3F3D56" d="M99.245 68.175c-.63 3.668-.219 7.437.491 11.09.13.727.303 1.446.516 2.153.254.805.596 1.58.834 2.39.606 2.052.521 4.246.431 6.39l-.413 9.75c-.035.817-.066 1.654.18 2.434.099.316.221.71-.03.924a.704.704 0 0 1-.333.127 5.14 5.14 0 0 1-3.313-.497l-.112-9.85c-.035-3.036-.071-6.085-.538-9.083-.37-2.384-1.015-4.737-1.057-7.15-.044-2.526.574-5.019 1.205-7.468.136-.524.631-.908 1.038-1.263.142-.14.315-.245.505-.306.19-.053.48.2.596.36z"/>
        <path fill="#000" d="M99.245 68.175c-.63 3.668-.219 7.437.491 11.09.13.727.303 1.446.516 2.153.254.805.596 1.58.834 2.39.606 2.052.521 4.246.431 6.39l-.413 9.75c-.035.817-.066 1.654.18 2.434.099.316.221.71-.03.924a.704.704 0 0 1-.333.127 5.14 5.14 0 0 1-3.313-.497l-.112-9.85c-.035-3.036-.071-6.085-.538-9.083-.37-2.384-1.015-4.737-1.057-7.15-.044-2.526.574-5.019 1.205-7.468.136-.524.631-.908 1.038-1.263.142-.14.315-.245.505-.306.19-.053.48.2.596.36z" opacity=".1"/>
        <path fill="#3F3D56" d="M87.4 56.712c-.234.962.261 1.958.206 2.947-.032.598-.267 1.195-.158 1.782.109.588.529 1.03.753 1.568.163.45.25.924.255 1.402.065 1.181.013 2.369-.031 3.545-.075 1.974-.13 3.959.13 5.915.227 1.695.688 3.35 1.368 4.918.207.427.377.87.51 1.325.087.424.145.853.173 1.285.15 1.405.527 2.776 1.116 4.06.402.88 1.104 1.579 1.327 2.512.21.894.069 1.836.222 2.74.112.672.385 1.307.536 1.97.197.857.193 1.746.292 2.62.284 2.527 1.431 5.053.746 7.504-.137.493-.35.993-.254 1.495.048.247.168.49.114.735-.044.208-.205.369-.287.566-.158.37.01.809.29 1.095.3.266.648.472 1.026.606 1.162.497 2.366 1.003 3.628.991a.965.965 0 0 0 .447-.082c.227-.118.339-.375.435-.612l.647-1.601c.079-.195.158-.422.049-.602a1.129 1.129 0 0 0-.272-.253c-.522-.44-.404-1.263-.265-1.924.355-1.699.551-3.428.587-5.163.07-3.462-.5-6.902-1.068-10.317-.197-1.186-.396-2.38-.789-3.517-.392-1.136-.971-2.23-.877-3.412.101-1.276-.23-2.613 0-3.871.23-1.259.595-2.49.83-3.747.305-1.631.38-3.294.473-4.949.04-.675.09-1.373.406-1.973.184-.35.453-.65.659-.99.533-.883.619-1.977 1.128-2.874.242-.425.574-.799.751-1.254.124-.358.189-.735.193-1.114.05-.953-.003-1.909-.158-2.85a18.517 18.517 0 0 0-8.677-2.015c-1.153.019-2.32.136-3.401.535-1.032.384-1.972.922-3.06 1.004z"/>
        <path fill="#fff" d="M93.867 106.737c-.464.578-.432 1.404-.729 2.084-.36.826-1.16 1.355-1.921 1.836l-4.733 3c-.259.158-.536.352-.63.646-.046.188-.038.384.023.567a2.458 2.458 0 0 0 1.653 1.68c.419.1.85.144 1.28.131l2.128.028c.648.026 1.297 0 1.942-.075.59-.086 1.164-.255 1.75-.362 1.069-.194 2.167-.177 3.237-.365a17.228 17.228 0 0 0 1.937-.5c.773-.232 1.56-.474 2.223-.933.182-.111.33-.271.427-.461.112-.261.051-.559-.012-.836l-1.016-4.468a2.675 2.675 0 0 0-.398-1.044c-.226-.3-.631-.499-.983-.371a2.056 2.056 0 0 0-.408.247c-.521.342-1.188.399-1.804.292-.397-.071-.922-.18-1.243-.444-.243-.201-.315-.512-.522-.739a1.48 1.48 0 0 0-2.2.087z"/>
        <path fill="#FBBEBE" d="M90.799 20.668c3.148 0 5.7-2.554 5.7-5.704a5.702 5.702 0 0 0-5.7-5.705 5.702 5.702 0 0 0-5.7 5.704 5.702 5.702 0 0 0 5.7 5.705z"/>
        <path fill="#192534" d="M86.402 15.299c.546-.307.546-1.19 1.104-1.483.559-.294 1.193.216 1.551.73a6.727 6.727 0 0 1 1.065 2.507c.05.255.098.535.29.713.193.179.445.2.691.226.72.072 1.442.137 2.165.196.804.065 1.653.117 2.384-.229.288-.129.535-.334.716-.594.144-.249.248-.52.306-.802.377-1.435.757-2.888.789-4.372.012-.613-.041-1.247-.336-1.784-.172-.316-.425-.59-.496-.938-.07-.347.158-.79.518-.752a2.121 2.121 0 0 1-.947-.18c-.285-.157-.497-.497-.396-.806-.801.102-1.385-.69-2.01-1.204a.544.544 0 0 0-.382-.157c-.11.027-.215.068-.315.121-.316.11-.645-.1-.969-.19-.867-.244-1.97.343-2.614-.288.062.402-.432.672-.839.664-.407-.007-.827-.157-1.212-.022a.79.79 0 0 1-.45 1.13l.19.418a1.076 1.076 0 0 0-.828.777c-.21.828-.158 2.006-.107 2.859.025.374.39 3.319.132 3.46z"/>
        <path fill="#DE0059" d="M91.266 22.317c-2.864 3.222-3.592 7.759-4.203 12.03l-.9 6.306c-.233 1.636-.472 3.272-.676 4.912-.142 1.123-.274 2.263-.12 3.384.122.884.417 1.737.663 2.588.64 2.232.959 4.544.946 6.867.191-.563.852-.79 1.433-.916a23.145 23.145 0 0 1 14.492 1.549c.796-2.234.646-4.679.869-7.04.315-3.369 1.402-6.632 1.724-9.994.119-1.252.133-2.51.145-3.769.01-.924.019-1.857-.173-2.761-.215-1.002-.667-1.935-1.136-2.843a73.992 73.992 0 0 0-8.128-12.535c-.44-.548-.63-1.023-1.33-.695-1.32.62-2.645 1.835-3.606 2.917z"/>
        <path fill="#FBBEBE" d="M92.906 49.14c-.698.025-1.397.003-2.093-.066-.516-.05-1.043-.127-1.546 0a1.61 1.61 0 0 0-.601.295.454.454 0 0 0 .257.79l.54.047c.342.03.699.064.965.316.11.098.18.233.196.38.033.368-.286.569-.571.722-.406.19-.782.44-1.114.742-.26.252-.424.587-.462.947a.183.183 0 0 0 .268.17c.63-.317 1.043-1.253 1.735-1.097-.63.2-1.17.615-1.524 1.173a.708.708 0 0 0 .947 1c.102-.06.201-.126.296-.197.47-.38.89-.818 1.251-1.302-.504 1.066-1.016 2.314-.435 3.373a.336.336 0 0 0 .316.186c.182-.019.236-.19.266-.342.095-.488.118-1.003.358-1.437.556-1.007 1.925-1.105 2.968-1.596 1.25-.581 2.107-1.832 2.453-3.168.12-.39.142-.803.061-1.203-.231-.898-1.339-1.105-2.05-.67-.873.553-1.38.902-2.48.937z"/>
        <path fill="#000" d="M91.8 31.467c1.103 1.706 3.02 2.668 4.664 3.867.401.26.75.594 1.032.982.415.64.473 1.455.388 2.21-.107.996-.428 1.955-.745 2.905l-.69 2.06c-.436 1.308-.887 2.642-1.719 3.742-.213.279-.46.577-.451.928a1.2 1.2 0 0 0 .202.565 3.8 3.8 0 0 0 2.412 1.724c.298.076.61.076.907 0 .426-.126.746-.473 1.043-.802 1.42-1.568 2.84-3.158 3.865-4.997 1.002-1.795 1.601-3.79 2.154-5.765.227-.727.385-1.474.473-2.23.117-1.422-.256-2.843-.865-4.127-.609-1.283-1.446-2.446-2.309-3.574a24.952 24.952 0 0 0-2.706-3.108c-1.716-1.606-3.816-2.55-6.113-1.639-1.622.645-2.23 1.988-2.374 3.71a5.647 5.647 0 0 0 .831 3.549z" opacity=".1"/>
        <path fill="#DE0059" d="M92.373 31.034c1.105 1.707 3.023 2.668 4.665 3.867.4.264.748.599 1.027.988.415.641.474 1.454.388 2.21-.108.997-.427 1.956-.746 2.906l-.69 2.053c-.436 1.307-.887 2.64-1.719 3.74-.211.28-.459.576-.45.929.018.202.088.396.203.563a3.8 3.8 0 0 0 2.41 1.726c.298.076.61.076.909 0 .426-.125.744-.474 1.043-.8 1.419-1.57 2.839-3.158 3.865-4.998 1.002-1.795 1.601-3.79 2.153-5.766.228-.727.387-1.473.473-2.23.117-1.42-.255-2.842-.863-4.127-.607-1.285-1.446-2.446-2.309-3.575a24.834 24.834 0 0 0-2.712-3.09c-1.715-1.604-3.815-2.55-6.112-1.637-1.623.644-2.229 1.986-2.376 3.709a5.652 5.652 0 0 0 .841 3.532z"/>
        <path fill="#3F3D56" d="M127.257 87.67c.001.412-.041.822-.126 1.225-.016.076-.033.158-.05.223-.448 1.798-1.712 3.113-3.22 3.197h-.158c-1.595 0-2.944-1.377-3.389-3.273a5.866 5.866 0 0 1-.161-1.383c0-2.57 1.589-4.65 3.55-4.65 1.961 0 3.554 2.097 3.554 4.66z"/>
        <path fill="#000" d="M127.257 87.67c.001.411-.041.822-.126 1.224-.016.076-.033.158-.05.223h-.158a7.214 7.214 0 0 1-1.161-.158 7.107 7.107 0 0 1-1.846.313h-.275a7.124 7.124 0 0 1-2.497-.444 7.22 7.22 0 0 1-.823.221 5.8 5.8 0 0 1-.161-1.383c0-2.569 1.588-4.65 3.549-4.65 1.961 0 3.548 2.09 3.548 4.653z" opacity=".1"/>
        <path fill="#DE0059" d="M134.83 79.007a7.21 7.21 0 0 0-.773-3.254l-4.175 1.3 3.665-2.157a7.22 7.22 0 0 0-5.42-3.092c-.172-.26-.36-.51-.564-.745l-5.995 1.868 4.918-2.895a7.215 7.215 0 0 0-6.707-1.11 7.22 7.22 0 0 0-4.652 4.962l5.135 5.916-5.57-4.033a7.223 7.223 0 0 0 1.432 12.572c1.6.657 3.384.718 5.025.17a7.238 7.238 0 0 0 4.619.128 7.219 7.219 0 0 0 8.063-3.93 7.25 7.25 0 0 0 .712-3.121c0-.158 0-.316-.016-.474a7.245 7.245 0 0 0 .303-2.105z"/>
        <path fill="#000" d="M134.705 80.347a19.211 19.211 0 0 0-6.679-.086c-2.507.416-5.069 1.328-7.521.662-1.439-.392-2.682-1.298-4.087-1.802a7.755 7.755 0 0 0-4.221-.252 7.235 7.235 0 0 0 1.371 7.702 7.215 7.215 0 0 0 7.573 1.939 7.238 7.238 0 0 0 4.619.128 7.219 7.219 0 0 0 8.063-3.93c.467-.975.711-2.041.712-3.122 0-.158 0-.316-.016-.474.076-.251.138-.507.186-.765z" opacity=".1"/>
    </g>
    <defs>
        <clipPath id="a">
            <path fill="#fff" d="M0 0h172.59v120H0z"/>
        </clipPath>
    </defs>
</svg>
