<svg xmlns="http://www.w3.org/2000/svg" width="148" height="120" fill="none" viewBox="0 0 148 120">
    <g clip-path="url(#a)">
        <path fill="#DE0059" d="M143.88 119.553c1.243-1.243-.195-4.697-3.214-7.714-3.018-3.018-6.472-4.456-7.715-3.213-1.243 1.242.195 4.696 3.214 7.713 3.018 3.018 6.472 4.456 7.715 3.214z" opacity=".1"/>
        <path fill="#3F3D56" d="M138.963 114.593c.943 0 1.708-1.001 1.708-2.237 0-1.235-.765-2.237-1.708-2.237-.944 0-1.709 1.002-1.709 2.237 0 1.236.765 2.237 1.709 2.237z"/>
        <path fill="#3F3D56" d="M138.963 111.86c.943 0 1.708-1.002 1.708-2.237 0-1.236-.765-2.237-1.708-2.237-.944 0-1.709 1.001-1.709 2.237 0 1.235.765 2.237 1.709 2.237z"/>
        <path fill="#3F3D56" d="M138.963 109.126c.943 0 1.708-1.002 1.708-2.237 0-1.236-.765-2.237-1.708-2.237-.944 0-1.709 1.001-1.709 2.237 0 1.235.765 2.237 1.709 2.237z"/>
        <path fill="#3F3D56" d="M138.963 106.392c.943 0 1.708-1.001 1.708-2.237 0-1.235-.765-2.237-1.708-2.237-.944 0-1.709 1.002-1.709 2.237 0 1.236.765 2.237 1.709 2.237z"/>
        <path fill="#3F3D56" d="M138.963 103.658c.943 0 1.708-1.001 1.708-2.236 0-1.236-.765-2.237-1.708-2.237-.944 0-1.709 1.001-1.709 2.237 0 1.235.765 2.236 1.709 2.236z"/>
        <path fill="#3F3D56" d="M138.963 100.925c.943 0 1.708-1.002 1.708-2.237 0-1.236-.765-2.237-1.708-2.237-.944 0-1.709 1.001-1.709 2.237 0 1.235.765 2.237 1.709 2.237z"/>
        <path fill="#3F3D56" d="M138.963 98.191c.943 0 1.708-1.001 1.708-2.237 0-1.235-.765-2.237-1.708-2.237-.944 0-1.709 1.002-1.709 2.237 0 1.236.765 2.237 1.709 2.237z"/>
        <path fill="#DE0059" d="M145.359 77.247a8.07 8.07 0 0 0 .637-.936l-4.49-.738 4.857.036a8.196 8.196 0 0 0 .159-6.485l-6.515 3.38 6.005-4.417a8.172 8.172 0 0 0-5.257-3.883 8.187 8.187 0 0 0-8.263 13.043 8.13 8.13 0 0 0-.933 1.492l5.829 3.025-6.211-2.086a8.185 8.185 0 0 0 1.32 7.685 8.186 8.186 0 0 0-.929 8.635 8.182 8.182 0 0 0 11.706 3.361 8.182 8.182 0 0 0 2.09-11.996 8.182 8.182 0 0 0 0-10.12l-.005.004z"/>
        <path fill="#000" d="M130.741 82.307a8.147 8.147 0 0 0 1.751 5.06 8.185 8.185 0 1 0 12.867 0c1.098-1.392-14.618-5.979-14.618-5.06z" opacity=".1"/>
        <path fill="#444053" d="M134.876 0v114.633L96.02 109.22l-47.233 9.634-.381.078-37.582-10.349V8.916L49.839 0l42.678 8.916 1.623-.342L134.876 0z"/>
        <path fill="#fff" d="M128.347 6.26v102.566l-34.765-4.843-42.262 8.62-.34.068-33.627-9.258V14.237l34.91-7.977 38.184 7.977 1.452-.306 36.448-7.67z"/>
        <path fill="#000" d="M96.02 109.22l-47.233 9.634L49.838 0l42.678 8.916 1.623-.342 1.88 100.646z" opacity=".1"/>
        <g stroke="#444053" stroke-miterlimit="10" stroke-width="3" opacity=".3">
            <path d="M91.303 21.971l.02 33.355h13.854V41.634h23.728l2.786-3.573M14.168 32.559h51.516l3.185-1.433h1.274v32.16h22.294l.956 2.867V80.64h17.198v17.911M76.948 98.553V63.287M131.691 89.105H76.948M117.98 21.971v76.581M14.009 82.335H131.69M28.331 98.552v-76.58M55.687 21.971v76.581M14.168 41.315l91.009.319M40.655 22.11v76.442" opacity=".3"/>
            <path d="M14.009 59.04h41.678l21.26 23.295M81.553 21.971v41.316M76.948 70.687h54.743" opacity=".3"/>
        </g>
        <path fill="#DE0059" d="M93.313 70.372H77.23v-7.005l15.208-.08.956 2.707-.08 4.378z"/>
        <path fill="#DE0059" d="M85.35 34.072a8.804 8.804 0 0 0-8.802 8.801c0 4.86 8.803 20.653 8.803 20.653s8.803-15.786 8.803-20.653a8.8 8.8 0 0 0-8.803-8.801zm0 12.555a3.873 3.873 0 0 1-2.738-6.61 3.873 3.873 0 0 1 6.612 2.738 3.872 3.872 0 0 1-3.873 3.87v.002z"/>
        <path fill="#000" d="M85.35 34.072a8.804 8.804 0 0 0-8.802 8.801c0 4.86 8.803 20.653 8.803 20.653s8.803-15.786 8.803-20.653a8.8 8.8 0 0 0-8.803-8.801zm0 12.555a3.873 3.873 0 0 1-2.738-6.61 3.873 3.873 0 0 1 6.612 2.738 3.872 3.872 0 0 1-3.873 3.87v.002z" opacity=".1"/>
        <path fill="#DE0059" d="M85.35 35.345a8.804 8.804 0 0 0-8.802 8.802c0 4.86 8.803 20.652 8.803 20.652s8.803-15.785 8.803-20.653a8.8 8.8 0 0 0-8.803-8.8zm0 12.556a3.874 3.874 0 0 1-3.797-4.628 3.871 3.871 0 0 1 5.28-2.822 3.872 3.872 0 0 1-1.482 7.448v.002z"/>
        <path fill="#DE0059" d="M82.367 118.784c2.702-1.163 4.504-3.008 4.024-4.121-.479-1.113-3.058-1.072-5.76.091-2.702 1.164-4.504 3.009-4.024 4.122.48 1.113 3.058 1.072 5.76-.092z" opacity=".1"/>
        <path fill="#3F3D56" d="M81.437 117.443c.65 0 1.178-.69 1.178-1.541s-.528-1.541-1.178-1.541c-.651 0-1.179.69-1.179 1.541s.528 1.541 1.179 1.541z"/>
        <path fill="#3F3D56" d="M81.437 115.558c.65 0 1.178-.69 1.178-1.541s-.528-1.541-1.178-1.541c-.651 0-1.179.69-1.179 1.541s.528 1.541 1.179 1.541z"/>
        <path fill="#3F3D56" d="M81.437 113.675c.65 0 1.178-.69 1.178-1.542 0-.851-.528-1.541-1.178-1.541-.651 0-1.179.69-1.179 1.541 0 .852.528 1.542 1.179 1.542z"/>
        <path fill="#3F3D56" d="M81.437 111.791c.65 0 1.178-.69 1.178-1.541s-.528-1.542-1.178-1.542c-.651 0-1.179.691-1.179 1.542 0 .851.528 1.541 1.179 1.541z"/>
        <path fill="#3F3D56" d="M81.437 109.906c.65 0 1.178-.69 1.178-1.542 0-.851-.528-1.541-1.178-1.541-.651 0-1.179.69-1.179 1.541 0 .852.528 1.542 1.179 1.542z"/>
        <path fill="#3F3D56" d="M81.437 108.022c.65 0 1.178-.69 1.178-1.541s-.528-1.541-1.178-1.541c-.651 0-1.179.69-1.179 1.541s.528 1.541 1.179 1.541z"/>
        <path fill="#3F3D56" d="M81.437 106.139c.65 0 1.178-.69 1.178-1.541s-.528-1.541-1.178-1.541c-.651 0-1.179.69-1.179 1.541s.528 1.541 1.179 1.541z"/>
        <path fill="#DE0059" d="M77.027 91.703a5.754 5.754 0 0 1-.44-.637l3.096-.51-3.344.026a5.657 5.657 0 0 1-.108-4.469l4.49 2.321-4.14-3.044a5.641 5.641 0 1 1 9.318 6.313c.248.32.462.664.637 1.028L82.52 94.82l4.284-1.433a5.643 5.643 0 0 1-.91 5.297 5.639 5.639 0 0 1-1.44 8.269 5.641 5.641 0 0 1-7.428-8.27 5.642 5.642 0 0 1 0-6.974v-.005z"/>
        <path fill="#000" d="M87.103 95.185a5.617 5.617 0 0 1-1.207 3.489 5.64 5.64 0 0 1-4.435 9.128 5.644 5.644 0 0 1-5.61-6.244 5.64 5.64 0 0 1 1.176-2.884c-.756-.956 10.076-4.116 10.076-3.489z" opacity=".1"/>
        <path fill="#DE0059" d="M13.14 116.049c1.242-1.243-.196-4.696-3.214-7.714-3.018-3.017-6.473-4.456-7.716-3.213-1.243 1.243.196 4.697 3.214 7.714 3.018 3.017 6.472 4.456 7.715 3.213z" opacity=".1"/>
        <path fill="#3F3D56" d="M8.222 111.091c.944 0 1.709-1.002 1.709-2.237 0-1.236-.765-2.237-1.71-2.237-.943 0-1.708 1.001-1.708 2.237 0 1.235.765 2.237 1.709 2.237z"/>
        <path fill="#3F3D56" d="M8.222 108.357c.944 0 1.709-1.001 1.709-2.237 0-1.235-.765-2.237-1.71-2.237-.943 0-1.708 1.002-1.708 2.237 0 1.236.765 2.237 1.709 2.237z"/>
        <path fill="#3F3D56" d="M8.222 105.623c.944 0 1.709-1.002 1.709-2.237 0-1.236-.765-2.237-1.71-2.237-.943 0-1.708 1.001-1.708 2.237 0 1.235.765 2.237 1.709 2.237z"/>
        <path fill="#3F3D56" d="M8.222 102.889c.944 0 1.709-1.001 1.709-2.237 0-1.235-.765-2.237-1.71-2.237-.943 0-1.708 1.002-1.708 2.237 0 1.236.765 2.237 1.709 2.237z"/>
        <path fill="#3F3D56" d="M8.222 100.156c.944 0 1.709-1.002 1.709-2.237s-.765-2.237-1.71-2.237c-.943 0-1.708 1.002-1.708 2.237 0 1.236.765 2.237 1.709 2.237z"/>
        <path fill="#3F3D56" d="M8.222 97.422c.944 0 1.709-1.001 1.709-2.237 0-1.235-.765-2.237-1.71-2.237-.943 0-1.708 1.002-1.708 2.237 0 1.236.765 2.237 1.709 2.237z"/>
        <path fill="#3F3D56" d="M8.222 94.688c.944 0 1.709-1.001 1.709-2.237 0-1.235-.765-2.237-1.71-2.237-.943 0-1.708 1.002-1.708 2.237 0 1.236.765 2.237 1.709 2.237z"/>
        <path fill="#DE0059" d="M14.619 73.744c.234-.297.446-.61.637-.936l-4.491-.738 4.857.036a8.204 8.204 0 0 0 .16-6.485L9.266 69l6.005-4.417A8.185 8.185 0 0 0 3.59 61.903a8.186 8.186 0 0 0-1.838 11.84 8.144 8.144 0 0 0-.933 1.493l5.828 3.025-6.21-2.086a8.19 8.19 0 0 0 1.32 7.685A8.182 8.182 0 0 0 8.19 97.103a8.186 8.186 0 0 0 8.138-9.059 8.182 8.182 0 0 0-1.704-4.184 8.184 8.184 0 0 0 0-10.12l-.005.004z"/>
        <path fill="#000" d="M0 78.804a8.144 8.144 0 0 0 1.752 5.06 8.183 8.183 0 0 0 6.433 13.242 8.186 8.186 0 0 0 8.138-9.058 8.183 8.183 0 0 0-1.704-4.184C15.716 82.472 0 77.885 0 78.803z" opacity=".1"/>
    </g>
    <defs>
        <clipPath id="a">
            <path fill="#fff" d="M0 0h147.111v120H0z"/>
        </clipPath>
    </defs>
</svg>
